<svg xmlns="http://www.w3.org/2000/svg" width="128" height="128" viewBox="0 0 128 128" role="img" aria-labelledby="title">
  <title id="title">AstroShot</title>
  <path
    d="M83 16C38 3 6 37 14 82C22 123 72 132 105 102C119 89 122 68 112 45L101 51C108 69 104 85 94 94C67 118 28 110 22 77C15 43 40 17 79 26Z"
    fill="#3B82F6"
  />
  <circle cx="81" cy="21" r="5" fill="#3B82F6"/>
  <circle cx="106" cy="48" r="5" fill="#3B82F6"/>
  <circle cx="43" cy="43" r="4" fill="#3B82F6"/>
  <path d="M29 96 64 61 72 69Z" fill="#3B82F6"/>
  <path
    d="M76 61 92 45A9 9 0 0 0 80 33L64 49A9 9 0 0 0 76 61Z"
    fill="#3B82F6"
  />
</svg>
